<?xml version="1.0" encoding="UTF-8" standalone="no"?>
<!-- Created with Inkscape (http://www.inkscape.org/) -->

<svg
   width="40"
   height="40"
   viewBox="0 0 10.583336 10.583336"
   version="1.1"
   id="svg5"
   inkscape:version="1.1 (c68e22c387, 2021-05-23)"
   sodipodi:docname="brief4ijidea_original.svg.2021_09_29_07_51_56.0.svg"
   inkscape:export-filename="/home/rwilliamson/Pictures/brief4ijidea2.png"
   inkscape:export-xdpi="96"
   inkscape:export-ydpi="96"
   xmlns:inkscape="http://www.inkscape.org/namespaces/inkscape"
   xmlns:sodipodi="http://sodipodi.sourceforge.net/DTD/sodipodi-0.dtd"
   xmlns="http://www.w3.org/2000/svg"
   xmlns:svg="http://www.w3.org/2000/svg">
  <sodipodi:namedview
     id="namedview7"
     pagecolor="#ffffff"
     bordercolor="#666666"
     borderopacity="1.0"
     inkscape:pageshadow="2"
     inkscape:pageopacity="0.0"
     inkscape:pagecheckerboard="true"
     inkscape:document-units="px"
     showgrid="true"
     width="47px"
     inkscape:showpageshadow="false"
     inkscape:zoom="21.84"
     inkscape:cx="18.681319"
     inkscape:cy="20.009158"
     inkscape:window-width="1581"
     inkscape:window-height="914"
     inkscape:window-x="166"
     inkscape:window-y="20"
     inkscape:window-maximized="0"
     inkscape:current-layer="layer7"
     showguides="true"
     inkscape:snap-to-guides="false"
     inkscape:snap-grids="false">
    <inkscape:grid
       type="xygrid"
       id="grid2980"
       empspacing="10" />
  </sodipodi:namedview>
  <defs
     id="defs2" />
  <g
     inkscape:label="background"
     inkscape:groupmode="layer"
     id="layer1"
     sodipodi:insensitive="true" />
  <g
     inkscape:groupmode="layer"
     id="layer2"
     inkscape:label="blue"
     sodipodi:insensitive="true"
     style="display:inline">
    <rect
       style="fill:#0000aa;fill-opacity:1;fill-rule:evenodd;stroke-width:0.264583"
       id="rect904"
       width="9.5250025"
       height="9.5250025"
       x="0.52916682"
       y="0.52916682"
       ry="0" />
  </g>
  <g
     inkscape:groupmode="layer"
     id="layer3"
     inkscape:label="yellow"
     sodipodi:insensitive="true"
     style="display:inline">
    <rect
       style="fill:#fe9901;fill-opacity:1;stroke-width:0.264583"
       id="rect2997"
       width="2.9104168"
       height="2.645834"
       x="7.1437516"
       y="0.52916682" />
  </g>
  <g
     inkscape:groupmode="layer"
     id="layer6"
     inkscape:label="BRIEF-paths"
     style="display:inline"
     sodipodi:insensitive="true">
    <path
       style="display:inline;fill:#ffffff;fill-rule:evenodd;stroke-width:0.0149061"
       d="M 1.4084403,5.5689716 V 3.9497831 l 0.3912853,0.00744 c 0.3439227,0.00654 0.4030898,0.011234 0.4888074,0.038784 0.2173632,0.06986 0.3377815,0.1994818 0.4110115,0.4424236 0.019952,0.066193 0.026772,0.1386248 0.026624,0.2827675 -2.405e-4,0.2331598 -0.036517,0.3859139 -0.1274546,0.536691 l -0.05865,0.097243 0.087646,0.081145 c 0.098639,0.091323 0.1625357,0.2004428 0.2140885,0.3656135 0.031333,0.1003901 0.034878,0.1399297 0.034741,0.3875586 -1.193e-4,0.219863 -0.00561,0.2954037 -0.027079,0.3726528 -0.095894,0.3450638 -0.32023,0.5681986 -0.6137308,0.6104465 -0.057388,0.00826 -0.2670057,0.015153 -0.4658159,0.015314 l -0.3614731,2.91e-4 z M 2.2953537,6.6944837 C 2.4427555,6.6536566 2.5113699,6.5395188 2.5230788,6.3156714 2.5367964,6.0534158 2.4600489,5.8515464 2.3180848,5.776474 2.2580317,5.7447171 2.2354206,5.7422676 2.0023401,5.7422676 H 1.7512808 v 0.4844485 0.4844482 l 0.2422242,-8.94e-5 c 0.1332233,-4.47e-5 0.2690552,-0.00751 0.3018487,-0.016597 z M 2.2724425,5.2242802 C 2.3870361,5.0860412 2.4118058,4.7861566 2.322977,4.6124655 2.2494027,4.4686023 2.1637454,4.4307441 1.9115214,4.4306131 L 1.7512808,4.43053 v 0.4248241 0.4248242 h 0.2374125 0.2374125 z"
       id="path1832" />
    <path
       style="display:inline;fill:#ffffff;fill-rule:evenodd;stroke-width:0.0149061"
       d="M 3.2418915,5.5708472 V 3.9535346 l 0.346567,4.498e-4 c 0.5378517,7.144e-4 0.6510757,0.026342 0.807504,0.1827694 0.1583553,0.1583553 0.2306445,0.3657998 0.242619,0.6962306 0.01514,0.4177976 -0.080735,0.728745 -0.2970596,0.9634291 l -0.060376,0.0655 0.2405844,0.6530009 c 0.1323211,0.3591505 0.2405841,0.6575535 0.2405841,0.6631179 0,0.00556 -0.093017,0.010118 -0.2067037,0.010118 H 4.3489072 L 4.1419664,6.5881794 3.9350254,5.9882085 3.7598786,5.9840095 3.5847318,5.9798106 V 6.583981 7.1881513 H 3.4133117 3.2418915 Z M 4.0819536,5.4534502 C 4.1500029,5.4250173 4.2219392,5.3328669 4.2521247,5.23546 4.2901128,5.1128758 4.2861795,4.8384549 4.2448195,4.7258244 4.2036231,4.6136376 4.1478402,4.5431397 4.0707295,4.5058109 4.0161761,4.4794028 3.9788608,4.4752483 3.7961636,4.4752483 H 3.5847318 v 0.4993546 0.4993546 h 0.2240704 c 0.1564601,0 0.2388799,-0.00619 0.2731514,-0.020507 z"
       id="path1871" />
    <path
       style="display:inline;fill:#ffffff;fill-rule:evenodd;stroke-width:0.0149061"
       d="M 5.0604365,5.5708472 V 3.9535346 H 5.23931 5.4181831 V 5.5708472 7.1881598 H 5.23931 5.0604365 Z"
       id="path1910" />
    <path
       style="display:inline;fill:#ffffff;fill-rule:evenodd;stroke-width:0.0149061"
       d="M 5.8802725,5.5708472 V 3.9535346 h 0.6558686 0.6558687 v 0.260857 0.2608567 H 6.7150143 6.2380189 v 0.402465 0.402465 h 0.4397302 0.4397302 v 0.2534036 0.253404 H 6.6777491 6.2380189 V 6.2267161 6.666446 H 6.7150143 7.1920098 V 6.927303 7.1881598 H 6.5361411 5.8802725 Z"
       id="path1949" />
    <path
       style="display:inline;fill:#ffffff;fill-rule:evenodd;stroke-width:0.0149061"
       d="M 7.5795686,5.5708472 V 3.9535346 h 0.6484156 0.6484156 v 0.260857 0.2608567 H 8.4068577 7.9373153 v 0.4248241 0.4248241 h 0.4248238 0.4248241 v 0.2534037 0.253404 H 8.3621391 7.9373153 V 6.509932 7.1881598 H 7.7584418 7.5795686 Z"
       id="path1988" />
  </g>
  <g
     inkscape:groupmode="layer"
     id="layer7"
     inkscape:label="for IJ IDEA-paths"
     style="display:inline"
     sodipodi:insensitive="true">
    <path
       style="fill:#ffffff;fill-rule:evenodd;stroke-width:0.010284"
       d="M 1.3787305,8.8043481 V 8.5332533 h -0.050034 c -0.049769,0 -0.050034,-1.761e-4 -0.050034,-0.033292 0,-0.033116 2.646e-4,-0.033292 0.050034,-0.033292 h 0.050034 l 1.78e-5,-0.068963 c 3.23e-5,-0.1311311 0.055088,-0.1748128 0.2140162,-0.1698034 0.028072,8.95e-4 0.030576,0.00408 0.030576,0.039012 v 0.038049 h -0.049404 c -0.065931,0 -0.084021,0.021959 -0.084021,0.1019935 v 0.059712 h 0.066712 0.066712 v 0.033292 0.033292 h -0.066711 -0.066712 v 0.2710947 0.2710947 h -0.055593 -0.055593 z"
       id="path2216" />
    <path
       style="fill:#ffffff;fill-rule:evenodd;stroke-width:0.00943286"
       d="m 1.9375905,9.0865992 c -0.062507,-0.01742 -0.1122479,-0.04706 -0.1469634,-0.087573 -0.045289,-0.05285 -0.057718,-0.093303 -0.057789,-0.1880828 -5.39e-5,-0.072235 0.00361,-0.0895 0.02744,-0.1292285 0.038547,-0.06427 0.075811,-0.095586 0.1453897,-0.1221799 0.081578,-0.03118 0.2150696,-0.033112 0.2964109,-0.00429 0.069531,0.024637 0.1260533,0.068413 0.1567581,0.1214062 0.021383,0.036904 0.024672,0.055922 0.024672,0.1426299 0,0.092792 -0.00216,0.103509 -0.03,0.1477724 -0.035212,0.056017 -0.097114,0.1004327 -0.1652488,0.1185691 -0.05966,0.01588 -0.1952967,0.01641 -0.2506697,9.817e-4 z M 2.1491577,9.0162112 C 2.2387837,8.9844072 2.2766719,8.9244902 2.2767144,8.8144902 2.2767389,8.7514452 2.2729544,8.7372412 2.2447464,8.694241 2.2010334,8.627625 2.1467634,8.604148 2.0461508,8.60833 1.9169864,8.61369 1.8549288,8.67322 1.8467286,8.7996021 c -0.00573,0.088109 0.0152,0.1452502 0.06837,0.1867884 0.058591,0.045772 0.1546271,0.058008 0.2340591,0.029821 z"
       id="path2255" />
    <path
       style="fill:#ffffff;fill-rule:evenodd;stroke-width:0.010284"
       d="M 2.5795449,8.7710559 V 8.4666686 h 0.050034 0.050034 v 0.058971 0.058971 l 0.055699,-0.053463 c 0.057998,-0.05567 0.1287642,-0.088043 0.179135,-0.081948 0.022894,0.00277 0.026901,0.0091 0.029778,0.047003 l 0.00332,0.043802 -0.05656,0.00573 c -0.07629,0.00773 -0.1364731,0.038519 -0.168369,0.086137 -0.025029,0.037366 -0.026512,0.049278 -0.030063,0.2414372 l -0.00374,0.202132 h -0.054629 -0.054638 z"
       id="path2294" />
    <path
       style="fill:#ffffff;fill-rule:evenodd;stroke-width:0.0121146"
       d="M 3.5884382,8.5313611 V 7.9922603 h 0.06663 0.066631 v 0.5391008 0.5391006 h -0.066631 -0.06663 z"
       id="path2333" />
    <path
       style="fill:#ffffff;fill-rule:evenodd;stroke-width:0.0121146"
       d="M 4.0426482,9.0662059 C 3.9312401,9.0143256 3.8793984,8.9282296 3.8792566,8.7948542 l -6.74e-5,-0.063602 h 0.072688 0.072688 l 1.96e-5,0.063602 c 2.17e-5,0.074094 0.027555,0.135817 0.076624,0.171772 0.047438,0.03476 0.163095,0.03453 0.2107528,-4.233e-4 0.074613,-0.054718 0.076003,-0.064605 0.076024,-0.540849 l 1.88e-5,-0.4330979 h 0.072688 0.072688 v 0.4218129 c 0,0.4849544 -0.00456,0.5165351 -0.08591,0.5954865 -0.061813,0.059987 -0.1365655,0.085162 -0.252429,0.085013 -0.070483,-9.07e-5 -0.1057807,-0.00666 -0.1523916,-0.028367 z"
       id="path2372" />
    <path
       style="fill:#ffffff;fill-rule:evenodd;stroke-width:0.0121146"
       d="M 5.272371,8.5313611 V 7.9922603 H 5.345059 5.417747 V 8.5313611 9.0704617 H 5.345059 5.272371 Z"
       id="path2411" />
    <path
       style="fill:#ffffff;fill-rule:evenodd;stroke-width:0.0121146"
       d="M 5.7084973,8.5326568 V 7.9922603 H 5.973743 c 0.3050139,0 0.3747829,0.013668 0.4782059,0.093688 0.1285108,0.09943 0.1835637,0.2495241 0.1743671,0.4753866 -0.00836,0.2052796 -0.061408,0.3234725 -0.1887967,0.4206352 -0.08991,0.068577 -0.146318,0.079209 -0.4534142,0.085467 l -0.2756078,0.00562 z m 0.572844,0.397499 C 6.3579653,8.9040468 6.4264849,8.8343288 6.4606153,8.747743 6.4839173,8.688627 6.4887123,8.653407 6.4892483,8.5374182 6.4900944,8.3546419 6.4680626,8.2799138 6.3894437,8.1988327 6.3104055,8.1173201 6.2509026,8.1012919 6.0273362,8.1012919 H 5.853873 v 0.4240119 0.4240118 h 0.1856184 c 0.1374688,0 0.2002053,-0.00497 0.2418499,-0.01916 z"
       id="path2450" />
    <path
       style="fill:#ffffff;fill-rule:evenodd;stroke-width:0.0121146"
       d="M 6.8593867,8.5313611 V 7.9922603 h 0.40584 0.40584 v 0.054516 0.054516 H 7.3379144 7.0047623 V 8.2830116 8.464731 H 7.3257999 7.6468375 V 8.519247 8.573763 H 7.3257999 7.0047623 v 0.1877759 0.1877767 h 0.3452668 0.3452668 v 0.060573 0.060573 H 7.2773412 6.8593867 Z"
       id="path2489" />
    <path
       style="fill:#ffffff;fill-rule:evenodd;stroke-width:0.0121146"
       d="M 7.8442196,9.031678 C 7.8532796,9.009699 7.9475071,8.7667266 8.0536053,8.4917384 l 0.1929059,-0.4999782 0.094955,0.00328 0.094955,0.00328 0.1869668,0.4906421 c 0.1028322,0.2698498 0.1949848,0.5110821 0.2047842,0.5360686 l 0.017817,0.04543 h -0.077068 -0.077068 l -0.060355,-0.160519 -0.060355,-0.1605188 -0.2350037,-0.00326 -0.2350036,-0.00326 -0.061807,0.1607497 -0.061807,0.16075 -0.074891,0.00362 -0.074891,0.00362 z M 8.5015122,8.556002 C 8.4852959,8.5129186 8.4433028,8.3984979 8.4081947,8.301734 8.3730866,8.2049697 8.3404651,8.1298251 8.3357023,8.1347458 8.3252936,8.1454985 8.143537,8.6076355 8.143537,8.6233454 c 0,0.00612 0.085871,0.010991 0.1937298,0.010991 h 0.1937301 z"
       id="path2528" />
  </g>
</svg>
