<?xml version="1.0" encoding="UTF-8" standalone="no"?>
<!-- Created with Inkscape (http://www.inkscape.org/) -->

<svg
   width="16"
   height="16"
   viewBox="0 0 4.2333344 4.2333344"
   version="1.1"
   id="svg5"
   inkscape:version="1.1 (c68e22c387, 2021-05-23)"
   sodipodi:docname="brief4ijidea.svg"
   inkscape:export-filename="/home/rwilliamson/Pictures/brief4ijidea2.png"
   inkscape:export-xdpi="96"
   inkscape:export-ydpi="96"
   xmlns:inkscape="http://www.inkscape.org/namespaces/inkscape"
   xmlns:sodipodi="http://sodipodi.sourceforge.net/DTD/sodipodi-0.dtd"
   xmlns="http://www.w3.org/2000/svg"
   xmlns:svg="http://www.w3.org/2000/svg">
  <sodipodi:namedview
     id="namedview7"
     pagecolor="#ffffff"
     bordercolor="#666666"
     borderopacity="1.0"
     inkscape:pageshadow="2"
     inkscape:pageopacity="0.0"
     inkscape:pagecheckerboard="true"
     inkscape:document-units="px"
     showgrid="true"
     width="47px"
     inkscape:showpageshadow="false"
     inkscape:zoom="17.75"
     inkscape:cx="20"
     inkscape:cy="20"
     inkscape:window-width="1581"
     inkscape:window-height="914"
     inkscape:window-x="166"
     inkscape:window-y="20"
     inkscape:window-maximized="0"
     inkscape:current-layer="layer7"
     showguides="true"
     inkscape:snap-to-guides="false"
     inkscape:snap-grids="false"
     borderlayer="true">
    <inkscape:grid
       type="xygrid"
       id="grid2980"
       empspacing="10" />
  </sodipodi:namedview>
  <defs
     id="defs2" />
  <g
     inkscape:label="background"
     inkscape:groupmode="layer"
     id="layer1"
     sodipodi:insensitive="true" />
  <g
     inkscape:groupmode="layer"
     id="layer2"
     inkscape:label="blue"
     style="display:inline"
     sodipodi:insensitive="true">
    <rect
       style="fill:#0000aa;fill-opacity:1;fill-rule:evenodd;stroke-width:0.117592"
       id="rect904"
       width="4.2333345"
       height="4.2333345"
       x="-3.088379e-08"
       y="-3.088379e-08"
       ry="0" />
  </g>
  <g
     inkscape:groupmode="layer"
     id="layer3"
     inkscape:label="yellow"
     style="display:inline"
     sodipodi:insensitive="true">
    <rect
       style="fill:#fe9901;fill-opacity:1;stroke-width:0.117592"
       id="rect2997"
       width="1.2935185"
       height="1.1759262"
       x="2.9398155"
       y="-3.088379e-08" />
  </g>
  <g
     inkscape:groupmode="layer"
     id="layer6"
     inkscape:label="BRIEF-paths"
     style="display:inline"
     sodipodi:insensitive="true">
    <path
       style="display:inline;fill:#ffffff;fill-rule:evenodd;stroke-width:0.00662493"
       d="M 0.3907883,2.2399133 V 1.5202739 l 0.1739045,0.00331 c 0.1528546,0.00291 0.1791511,0.00499 0.2172478,0.017237 0.096606,0.031049 0.1501251,0.088659 0.1826718,0.1966328 0.00887,0.029419 0.011899,0.061611 0.011833,0.1256744 -1.068e-4,0.1036266 -0.01623,0.1715173 -0.056646,0.2385293 l -0.026067,0.043219 0.038954,0.036065 c 0.04384,0.040588 0.072238,0.089086 0.09515,0.1624949 0.013926,0.044618 0.015501,0.062191 0.01544,0.1722482 -5.31e-5,0.097717 -0.00249,0.1312906 -0.012035,0.1656235 -0.04262,0.1533617 -0.1423244,0.2525327 -0.2727692,0.2713096 -0.025506,0.00367 -0.1186692,0.00673 -0.2070293,0.00681 L 0.3907884,2.9595497 Z M 0.784972,2.7401409 c 0.065512,-0.018145 0.096007,-0.068873 0.1012112,-0.168361 0.0061,-0.1165581 -0.028013,-0.2062778 -0.091108,-0.2396433 -0.02669,-0.014114 -0.03674,-0.015203 -0.140331,-0.015203 H 0.5431618 v 0.2153105 0.2153103 l 0.1076552,-3.98e-5 c 0.05921,-1.98e-5 0.1195801,-0.00334 0.134155,-0.00738 z M 0.7747892,2.0867171 c 0.05093,-0.06144 0.061939,-0.1947216 0.02246,-0.2719176 -0.0327,-0.063939 -0.07077,-0.080765 -0.1828691,-0.080823 l -0.071218,-3.7e-5 V 1.9227502 2.111561 h 0.1055167 0.1055167 z"
       id="path1832" />
    <path
       style="display:inline;fill:#ffffff;fill-rule:evenodd;stroke-width:0.00662493"
       d="M 1.2056555,2.2407469 V 1.5219413 l 0.1540297,1.999e-4 c 0.2390452,3.175e-4 0.289367,0.011707 0.3588907,0.081231 0.07038,0.07038 0.1025087,0.1625777 0.1078307,0.3094359 0.00673,0.1856878 -0.035882,0.3238866 -0.1320265,0.4281907 l -0.026834,0.029111 0.1069264,0.2902226 c 0.058809,0.1596224 0.1069263,0.292246 0.1069263,0.2947191 0,0.00247 -0.041341,0.0045 -0.091868,0.0045 H 1.6976624 L 1.6056887,2.6928945 1.513715,2.4262408 1.4358719,2.4243746 1.3580289,2.4225084 V 2.6910286 2.9595487 H 1.2818422 1.2056555 Z M 1.5790164,2.1885704 C 1.6092605,2.1759336 1.6412322,2.1349779 1.654648,2.0916859 1.6715316,2.037204 1.6697835,1.9152392 1.6514012,1.8651812 1.6330917,1.8153204 1.6082993,1.783988 1.5740279,1.7673974 1.5497819,1.7556605 1.5331974,1.753814 1.4519986,1.753814 h -0.09397 v 0.2219354 0.2219354 h 0.099587 c 0.069538,0 0.1061688,-0.00275 0.1214006,-0.00911 z"
       id="path1871" />
    <path
       style="display:inline;fill:#ffffff;fill-rule:evenodd;stroke-width:0.00662493"
       d="M 2.0138977,2.2407469 V 1.5219413 h 0.079499 0.079499 V 2.2407469 2.9595525 H 2.093397 2.0138977 Z"
       id="path1910" />
    <path
       style="display:inline;fill:#ffffff;fill-rule:evenodd;stroke-width:0.00662493"
       d="M 2.3782692,2.2407469 V 1.5219413 H 2.6697664 2.9612636 V 1.6378777 1.753814 h -0.211998 -0.211998 v 0.1788734 0.1788733 h 0.1954357 0.1954356 v 0.1126238 0.112624 H 2.7327033 2.5372676 v 0.1954357 0.1954355 h 0.211998 0.211998 V 2.8436161 2.9595525 H 2.6697664 2.3782692 Z"
       id="path1949" />
    <path
       style="display:inline;fill:#ffffff;fill-rule:evenodd;stroke-width:0.00662493"
       d="M 3.1335119,2.2407469 V 1.5219413 H 3.4216966 3.7098814 V 1.6378777 1.753814 H 3.501196 3.2925105 V 1.9426247 2.1314355 H 3.481321 3.6701318 v 0.1126238 0.112624 H 3.481321 3.2925105 v 0.3014346 0.3014346 h -0.079499 -0.079499 z"
       id="path1988" />
  </g>
  <g
     inkscape:groupmode="layer"
     id="layer7"
     inkscape:label="for IJ IDEA-paths"
     style="display:inline"
     sodipodi:insensitive="true">
    <path
       style="fill:#ffffff;fill-rule:evenodd;stroke-width:0.00457067"
       d="M 0.3775839,3.6778584 V 3.5573718 h -0.022237 c -0.02212,0 -0.022237,-7.83e-5 -0.022237,-0.014796 0,-0.014718 1.176e-4,-0.014797 0.022237,-0.014797 h 0.022237 l 7.9e-6,-0.03065 c 1.44e-5,-0.058281 0.024484,-0.077695 0.095118,-0.075468 0.012477,3.978e-4 0.013589,0.00181 0.013589,0.017339 v 0.016911 h -0.021957 c -0.029303,0 -0.037343,0.00976 -0.037343,0.04533 v 0.026539 h 0.02965 0.02965 v 0.014796 0.014796 h -0.029649 -0.02965 v 0.1204866 0.1204865 h -0.024708 -0.024708 z"
       id="path2216" />
    <path
       style="fill:#ffffff;fill-rule:evenodd;stroke-width:0.00419238"
       d="m 0.6259661,3.8033033 c -0.027781,-0.00774 -0.049888,-0.020916 -0.065317,-0.038921 -0.020128,-0.023489 -0.025652,-0.041468 -0.025684,-0.083592 -2.4e-5,-0.032104 0.0016,-0.039778 0.012195,-0.057435 0.017132,-0.028564 0.033694,-0.042483 0.064618,-0.054302 0.036257,-0.013858 0.095587,-0.014716 0.1317381,-0.00191 0.030903,0.01095 0.056024,0.030406 0.06967,0.053958 0.0095,0.016402 0.010965,0.024854 0.010965,0.063391 0,0.041241 -9.6e-4,0.046004 -0.013333,0.065677 -0.01565,0.024896 -0.043162,0.044637 -0.073444,0.052697 -0.026516,0.00706 -0.086798,0.00729 -0.1114081,4.37e-4 z m 0.09403,-0.031284 c 0.039834,-0.014135 0.056673,-0.040765 0.056692,-0.089654 1.09e-5,-0.02802 -0.00167,-0.034333 -0.014208,-0.053444 -0.019428,-0.029607 -0.043548,-0.040041 -0.088265,-0.038183 -0.057406,0.00238 -0.084988,0.02884 -0.088632,0.08501 -0.00255,0.03916 0.00676,0.064556 0.030387,0.083017 0.02604,0.020343 0.068723,0.025781 0.104026,0.013254 z"
       id="path2255" />
    <path
       style="fill:#ffffff;fill-rule:evenodd;stroke-width:0.00457067"
       d="M 0.9112792,3.6630618 V 3.5277786 h 0.022237 0.022237 v 0.026209 0.026209 l 0.024755,-0.023761 c 0.025777,-0.024742 0.057229,-0.03913 0.079616,-0.036421 0.010175,0.00123 0.011956,0.00404 0.013235,0.02089 l 0.00148,0.019468 -0.025138,0.00255 c -0.033907,0.00344 -0.060655,0.01712 -0.074831,0.038283 -0.011124,0.016607 -0.011783,0.021901 -0.013361,0.1073054 l -0.00166,0.089836 h -0.02428 -0.024284 z"
       id="path2294" />
    <path
       style="fill:#ffffff;fill-rule:evenodd;stroke-width:0.00538427"
       d="M 1.3596762,3.5565308 V 3.3169305 h 0.029613 0.029614 v 0.2396003 0.2396003 h -0.029614 -0.029613 z"
       id="path2333" />
    <path
       style="fill:#ffffff;fill-rule:evenodd;stroke-width:0.00538427"
       d="M 1.5615473,3.7942396 C 1.5120326,3.7711817 1.4889919,3.7329168 1.4889288,3.6736389 l -2.99e-5,-0.028268 h 0.032306 0.032306 l 8.7e-6,0.028268 c 9.7e-6,0.032931 0.012247,0.060363 0.034055,0.076343 0.021084,0.015449 0.072487,0.015347 0.093668,-1.882e-4 0.033161,-0.024319 0.033779,-0.028713 0.033788,-0.2403773 l 8.4e-6,-0.1924879 H 1.747345 1.779651 V 3.504401 c 0,0.2155352 -0.00203,0.2295711 -0.038182,0.2646606 -0.027472,0.026661 -0.060696,0.03785 -0.1121907,0.037784 -0.031326,-4.03e-5 -0.047014,-0.00296 -0.06773,-0.012608 z"
       id="path2372" />
    <path
       style="fill:#ffffff;fill-rule:evenodd;stroke-width:0.00538427"
       d="M 2.1080908,3.5565308 V 3.3169305 h 0.032306 0.032306 v 0.2396003 0.2396003 h -0.032306 -0.032306 z"
       id="path2411" />
    <path
       style="fill:#ffffff;fill-rule:evenodd;stroke-width:0.00538427"
       d="M 2.3019247,3.5571067 V 3.3169305 h 0.117887 c 0.1355617,0 0.1665702,0.00607 0.2125359,0.041639 0.057116,0.044191 0.081584,0.1108996 0.077497,0.2112829 -0.00372,0.091235 -0.027292,0.1437656 -0.08391,0.186949 -0.03996,0.030479 -0.06503,0.035204 -0.2015174,0.037985 l -0.1224924,0.0025 z M 2.556522,3.7337729 C 2.590577,3.7221689 2.62103,3.6911829 2.636199,3.6527009 2.646555,3.6264269 2.648686,3.6107739 2.648925,3.5592229 2.6493012,3.477989 2.6395093,3.4447765 2.6045675,3.4087404 2.5694395,3.3725126 2.5429937,3.365389 2.4436309,3.365389 h -0.077095 v 0.1884497 0.1884497 h 0.082497 c 0.061097,0 0.08898,-0.00221 0.1074888,-0.00852 z"
       id="path2450" />
    <path
       style="fill:#ffffff;fill-rule:evenodd;stroke-width:0.00538427"
       d="M 2.8134311,3.5565308 V 3.3169305 h 0.1803733 0.1803734 v 0.024229 0.024229 H 3.0261101 2.8780425 v 0.080764 0.080764 h 0.1426833 0.1426834 v 0.024229 0.024229 H 3.0207258 2.8780425 v 0.083456 0.083456 h 0.1534519 0.1534519 v 0.026921 0.026921 H 2.9991886 2.8134311 Z"
       id="path2489" />
    <path
       style="fill:#ffffff;fill-rule:evenodd;stroke-width:0.00538427"
       d="m 3.2511346,3.7788939 c 0.00403,-0.00977 0.045906,-0.1177562 0.09306,-0.2399732 l 0.085736,-0.2222125 0.042202,0.00146 0.042202,0.00146 0.083096,0.2180631 c 0.045703,0.1199333 0.08666,0.2271476 0.091015,0.2382527 l 0.00792,0.020191 H 3.6621136 3.6278606 L 3.6010366,3.724793 3.5742126,3.653451 3.4697665,3.652001 3.3653204,3.650551 l -0.02747,0.071444 -0.02747,0.071444 -0.033285,0.00161 -0.033285,0.00161 z m 0.29213,-0.2114116 c -0.00721,-0.019148 -0.025871,-0.070002 -0.041474,-0.113008 -0.015604,-0.043006 -0.030102,-0.076404 -0.032219,-0.074217 -0.00463,0.00478 -0.085407,0.2101732 -0.085407,0.2171553 0,0.00272 0.038165,0.00488 0.086102,0.00488 h 0.086102 z"
       id="path2528" />
  </g>
</svg>
